<!DOCTYPE svg PUBLIC "-//W3C//DTD SVG 1.1//EN" "http://www.w3.org/Graphics/SVG/1.1/DTD/svg11.dtd">
<!-- Uploaded to: SVG Repo, www.svgrepo.com, Transformed by: SVG Repo Mixer Tools -->
<svg fill="#9ad342" height="800px" width="800px" version="1.1" id="Layer_1" xmlns="http://www.w3.org/2000/svg" xmlns:xlink="http://www.w3.org/1999/xlink" viewBox="0 0 512 512" xml:space="preserve">
<g id="SVGRepo_bgCarrier" stroke-width="0"/>
<g id="SVGRepo_tracerCarrier" stroke-linecap="round" stroke-linejoin="round"/>
<g id="SVGRepo_iconCarrier"> <g transform="translate(-1)"> <g> <g> <path d="M112.354,315.733c1.28,12.945,5.478,25.267,12.373,36.335l36.335-36.335H112.354z"/> <path d="M316.733,392.533c44.169,0,80.614-33.741,84.907-76.8H233.474l-69.828,69.82c10.624,4.591,22.067,6.98,33.621,6.98 H316.733z"/> <path d="M77.798,281.597c0-12.655,7.006-23.595,17.263-29.491C97.16,164.52,168.917,93.864,256.998,93.864 c34.543,0,67.157,10.769,94.95,30.985l30.532-30.532c-35.849-27.87-80.051-43.119-125.483-43.119 c-112.93,0-204.8,91.87-204.8,204.8c0,45.431,15.249,89.634,43.119,125.483l17.109-17.109 c-10.769-15.872-16.691-34.099-17.399-53.299C84.787,305.175,77.798,294.244,77.798,281.597z"/> <path d="M112.181,247.467h117.146l110.49-110.481c-24.388-17.075-52.821-26.052-82.816-26.052 C179.876,110.933,116.618,171.435,112.181,247.467z M154.6,204.8c-4.71,0-8.533-3.823-8.533-8.533s3.823-8.533,8.533-8.533 s8.533,3.823,8.533,8.533S159.31,204.8,154.6,204.8z M197.267,213.333c-4.71,0-8.533-3.823-8.533-8.533s3.823-8.533,8.533-8.533 s8.533,3.823,8.533,8.533S201.977,213.333,197.267,213.333z M205.8,170.667c-4.71,0-8.533-3.823-8.533-8.533 c0-4.71,3.823-8.533,8.533-8.533s8.533,3.823,8.533,8.533C214.333,166.844,210.51,170.667,205.8,170.667z M239.933,204.8 c-4.71,0-8.533-3.823-8.533-8.533s3.823-8.533,8.533-8.533c4.71,0,8.533,3.823,8.533,8.533S244.644,204.8,239.933,204.8z M248.467,145.067c-4.71,0-8.533-3.823-8.533-8.533s3.823-8.533,8.533-8.533s8.533,3.823,8.533,8.533 S253.177,145.067,248.467,145.067z M274.067,153.6c4.71,0,8.533,3.823,8.533,8.533c0,4.71-3.823,8.533-8.533,8.533 c-4.71,0-8.533-3.823-8.533-8.533C265.533,157.423,269.356,153.6,274.067,153.6z"/> <path d="M94.867,281.6c0,9.412,7.654,17.067,17.067,17.067h66.193l34.133-34.133H111.933 C102.521,264.533,94.867,272.188,94.867,281.6z"/> <path d="M376.014,173.184l-74.274,74.283h100.079C400.283,220.621,391.46,195.251,376.014,173.184z M367.933,230.4 c-4.71,0-8.533-3.823-8.533-8.533c0-4.71,3.823-8.533,8.533-8.533s8.533,3.823,8.533,8.533 C376.467,226.577,372.644,230.4,367.933,230.4z"/> <path d="M418.684,130.521l-30.532,30.532c19.456,26.743,30.054,57.976,30.822,91.076c10.24,5.897,17.229,16.828,17.229,29.474 c0,12.655-7.006,23.595-17.263,29.491c-2.074,54.647-47.061,98.509-102.204,98.509H197.269c-16.085,0-31.889-4.07-46.268-11.401 l-19.482,19.482c35.849,27.861,80.051,43.119,125.483,43.119c112.93,0,204.8-91.878,204.8-204.8 C461.803,210.572,446.553,166.369,418.684,130.521z"/> <path d="M257,0C115.842,0,1,114.842,1,256s114.842,256,256,256s256-114.842,256-256S398.158,0,257,0z M94.67,402.731 c-0.111,0-0.222-0.008-0.341-0.008c-2.372-0.094-4.608-1.178-6.153-2.987C53.975,359.612,35.133,308.565,35.133,256 c0-122.334,99.533-221.867,221.867-221.867c52.565,0,103.612,18.842,143.735,53.043c1.809,1.545,2.893,3.78,2.987,6.153 c0.094,2.381-0.811,4.693-2.492,6.374l-42.385,42.385L238.901,262.033l-51.2,51.2l-58.061,58.061l-28.937,28.937 C99.099,401.835,96.932,402.731,94.67,402.731z M257,477.867c-52.565,0-103.612-18.842-143.735-53.043 c-1.809-1.544-2.893-3.78-2.987-6.152c-0.094-2.381,0.811-4.693,2.492-6.374l30.532-30.532l80.597-80.597l51.2-51.2 l95.812-95.812l42.385-42.385c1.69-1.681,4.019-2.534,6.366-2.492c2.381,0.094,4.617,1.178,6.161,2.987 c34.202,40.124,53.043,91.17,53.043,143.735C478.867,378.334,379.334,477.867,257,477.867z"/> <path d="M419.133,281.6c0-9.412-7.654-17.067-17.067-17.067H284.674l-34.133,34.133h151.526 C411.479,298.667,419.133,291.012,419.133,281.6z"/> </g> </g> </g> </g>
</svg>